<svg xmlns="http://www.w3.org/2000/svg" width="1518.243" height="600" viewBox="0 0 1518.243 600">
  <g id="data_image_svg_xml_1_" data-name="data_image_svg+xml;… (1)" transform="translate(-688.999 -0.001)">
    <path id="Path_642" data-name="Path 642" d="M16.806,0,33.612,23.725H0Z" transform="matrix(0.94, -0.342, 0.342, 0.94, 1959.737, 124.606)" fill="#ffd659"/>
    <path id="Path_643" data-name="Path 643" d="M10.582,0,21.163,14.939H0Z" transform="translate(881.409 86.129) rotate(10)" fill="#ff8126"/>
    <path id="Path_644" data-name="Path 644" d="M15.561,0,31.122,21.968H0Z" transform="translate(719.648 340.746) rotate(-170)" fill="#8dd941"/>
    <path id="Path_645" data-name="Path 645" d="M14.938,0,29.877,21.09H0Z" transform="translate(1859.359 488.685) rotate(180)" fill="#4da6ff"/>
    <rect id="Rectangle_31" data-name="Rectangle 31" width="28.632" height="28.632" transform="matrix(0.766, -0.643, 0.643, 0.766, 845.318, 466.573)" fill="#4da6ff"/>
    <ellipse id="Ellipse_11" data-name="Ellipse 11" cx="17.5" cy="17" rx="17.5" ry="17" transform="translate(2172.242 359.001)" fill="#ff5967"/>
    <circle id="Ellipse_12" data-name="Ellipse 12" cx="15" cy="15" r="15" transform="translate(1219.242 570.001)" fill="#8dd941"/>
    <rect id="Rectangle_32" data-name="Rectangle 32" width="23.653" height="23.653" transform="translate(1547.356 0.001) rotate(30)" fill="#ff9e59"/>
  </g>
</svg>
