<svg xmlns="http://www.w3.org/2000/svg" width="1424" height="354.436" viewBox="0 0 1424 354.436">
  <g id="data_image_svg_xml_1_" data-name="data_image_svg+xml;… (1)" transform="translate(-688.999 -53.001)">
    <path id="Path_642" data-name="Path 642" d="M16.556,0,33.113,23.373H0Z" transform="matrix(0.94, -0.342, 0.342, 0.94, 1940.889, 122.757)" fill="#ffd659"/>
    <path id="Path_643" data-name="Path 643" d="M10.425,0,20.849,14.717H0Z" transform="translate(878.555 84.851) rotate(10)" fill="#ff8126"/>
    <path id="Path_644" data-name="Path 644" d="M15.33,0,30.66,21.643H0Z" transform="translate(719.194 335.692) rotate(-170)" fill="#8dd941"/>
    <path id="Path_645" data-name="Path 645" d="M14.717,0,29.434,20.777H0Z" transform="translate(1807.999 407.437) rotate(180)" fill="#4da6ff"/>
    <rect id="Rectangle_31" data-name="Rectangle 31" width="28.208" height="28.208" transform="matrix(0.766, -0.643, 0.643, 0.766, 878.999, 364.653)" fill="#4da6ff"/>
    <circle id="Ellipse_11" data-name="Ellipse 11" cx="17" cy="17" r="17" transform="translate(2078.999 329.548)" fill="#ff5967"/>
    <circle id="Ellipse_12" data-name="Ellipse 12" cx="15" cy="15" r="15" transform="translate(1213.999 357.548)" fill="#8dd941"/>
    <rect id="Rectangle_32" data-name="Rectangle 32" width="23.302" height="23.302" transform="translate(1514.624 53.001) rotate(30)" fill="#ff9e59"/>
  </g>
</svg>
