<svg xmlns="http://www.w3.org/2000/svg" width="64.103" height="79.677" viewBox="0 0 64.103 79.677">
  <path id="home-alt" d="M13.684,80.8A10.838,10.838,0,0,1,3,69.813V33.191q0-.186.018-.368H3A8.069,8.069,0,0,1,5.265,27.2L27.5,4.339a10.477,10.477,0,0,1,15.109,0L64.838,27.2A8.068,8.068,0,0,1,67.1,32.824h-.018q.018.181.018.368V69.813A10.838,10.838,0,0,1,56.419,80.8ZM37.57,9.518,59.981,32.563V69.813a3.613,3.613,0,0,1-3.561,3.662H45.736V55.164a10.688,10.688,0,1,0-21.368,0v18.31H13.684a3.613,3.613,0,0,1-3.561-3.662V32.564L32.533,9.518A3.492,3.492,0,0,1,37.57,9.518Z" transform="translate(-3 -1.121)" fill-rule="evenodd"/>
</svg>
